# Blender v2.79 (sub 7) OBJ File: 'tank.blend'
# www.blender.org
mtllib tank.mtl
o tank_Cube.001
v 0.403191 1.249633 -3.930907
v 0.380563 1.265621 -3.929063
v 0.449361 1.030462 -1.464215
v 0.444080 1.055531 -1.746356
v 0.426732 1.046450 -1.462371
v 0.421451 1.071519 -1.744512
v 0.401400 1.057727 -1.460895
v 0.396119 1.082797 -1.743036
v 0.374338 1.063861 -1.459843
v 0.369057 1.088931 -1.741985
v 0.346586 1.064615 -1.459256
v 0.341305 1.089685 -1.741398
v 0.319210 1.059961 -1.459157
v 0.313929 1.085030 -1.741299
v 0.293263 1.050077 -1.459551
v 0.287982 1.075146 -1.741692
v 0.269742 1.035343 -1.460419
v 0.264461 1.060412 -1.742561
v 0.249551 1.016325 -1.461731
v 0.244270 1.041395 -1.743873
v 0.233465 0.993755 -1.463435
v 0.228184 1.018824 -1.745577
v 0.222103 0.968499 -1.465467
v 0.216822 0.993568 -1.747609
v 0.215901 0.941528 -1.467747
v 0.210620 0.966597 -1.749889
v 0.215098 0.913879 -1.470189
v 0.209817 0.938948 -1.752331
v 0.219724 0.886614 -1.472698
v 0.214443 0.911683 -1.754840
v 0.229603 0.860780 -1.475179
v 0.224322 0.885850 -1.757320
v 0.244353 0.837372 -1.477535
v 0.239073 0.862441 -1.759676
v 0.263409 0.817288 -1.479676
v 0.258128 0.842357 -1.761817
v 0.286038 0.801299 -1.481520
v 0.280757 0.826369 -1.763661
v 0.311370 0.790022 -1.482996
v 0.306090 0.815091 -1.765138
v 0.338433 0.783888 -1.484048
v 0.333151 0.808957 -1.766189
v 0.366185 0.783134 -1.484634
v 0.360904 0.808203 -1.766776
v 0.393560 0.787788 -1.484733
v 0.388279 0.812857 -1.766874
v 0.419507 0.797672 -1.484340
v 0.414226 0.822741 -1.766482
v 0.443028 0.812406 -1.483472
v 0.437747 0.837475 -1.765613
v 0.463219 0.831424 -1.482160
v 0.457939 0.856493 -1.764301
v 0.479305 0.853994 -1.480455
v 0.474025 0.879064 -1.762597
v 0.490668 0.879250 -1.478424
v 0.485387 0.904320 -1.760565
v 0.496869 0.906221 -1.476143
v 0.491588 0.931291 -1.758285
v 0.497672 0.933870 -1.473702
v 0.492391 0.958940 -1.755843
v 0.493045 0.961136 -1.471192
v 0.487765 0.986205 -1.753334
v 0.483167 0.986969 -1.468712
v 0.477886 1.012038 -1.750854
v 0.468417 1.010377 -1.466356
v 0.463136 1.035447 -1.748497
v 0.355230 1.276899 -3.927587
v 0.328168 1.283033 -3.926535
v 0.300416 1.283787 -3.925949
v 0.273041 1.279133 -3.925850
v 0.247094 1.269249 -3.926243
v 0.223573 1.254515 -3.927111
v 0.203381 1.235497 -3.928424
v 0.187295 1.212927 -3.930127
v 0.175933 1.187671 -3.932160
v 0.169731 1.160700 -3.934440
v 0.168928 1.133051 -3.936882
v 0.173555 1.105785 -3.939390
v 0.183433 1.079952 -3.941870
v 0.198184 1.056544 -3.944227
v 0.217240 1.036459 -3.946368
v 0.239869 1.020471 -3.948212
v 0.265201 1.009193 -3.949689
v 0.292263 1.003060 -3.950740
v 0.320015 1.002305 -3.951327
v 0.347391 1.006960 -3.951425
v 0.373338 1.016844 -3.951033
v 0.396859 1.031578 -3.950164
v 0.417050 1.050596 -3.948852
v 0.433136 1.073166 -3.947148
v 0.444498 1.098422 -3.945116
v 0.450700 1.125393 -3.942836
v 0.451503 1.153042 -3.940394
v 0.446876 1.180307 -3.937885
v 0.436998 1.206141 -3.935405
v 0.422247 1.229549 -3.933048
v 0.473975 1.293109 -3.751136
v 0.544322 1.293109 -3.821483
v 0.473975 1.363457 -3.821483
v 0.544322 0.946208 -3.821483
v 0.473975 0.946208 -3.751136
v 0.473974 0.875860 -3.821483
v 0.473974 1.293109 -3.980584
v 0.473974 1.363457 -3.910237
v 0.544322 1.293109 -3.910237
v 0.127073 1.363457 -3.910237
v 0.127073 1.293110 -3.980584
v 0.056726 1.293109 -3.910237
v 0.056726 0.946208 -3.910237
v 0.127073 0.946208 -3.980584
v 0.127073 0.875860 -3.910237
v 0.544322 0.946208 -3.910237
v 0.473974 0.875860 -3.910237
v 0.473974 0.946208 -3.980585
v 0.056726 1.293109 -3.821483
v 0.127073 1.293109 -3.751135
v 0.127073 1.363457 -3.821483
v 0.056726 0.946208 -3.821483
v 0.127073 0.875860 -3.821483
v 0.127073 0.946208 -3.751136
v 1.977138 0.696560 0.272962
v 1.644900 0.386680 -0.034205
v 1.820421 0.694605 -0.304378
v 1.981983 0.702446 1.653643
v 1.673425 0.704784 1.964370
v 1.651621 0.393884 1.656118
v -1.014160 0.713621 1.973764
v -1.324892 0.713319 1.665203
v -0.990543 0.402572 1.665354
v -1.329738 0.707433 0.284521
v -1.156278 0.704448 -0.280883
v -0.995446 0.395362 -0.024975
v 1.821273 0.955026 -0.305492
v 1.440818 1.265748 -0.346889
v 1.669358 1.267643 0.271608
v 1.977990 0.956981 0.271849
v 1.674277 0.965206 1.963256
v 1.982835 0.962867 1.652530
v 1.674203 1.273530 1.652289
v -1.324040 0.973740 1.664089
v -1.013308 0.974042 1.972651
v -1.013381 1.282367 1.661683
v -1.155426 0.964869 -0.281996
v -1.328885 0.967854 0.283408
v -1.018227 1.276480 0.281002
v -0.741347 1.272923 -0.339261
v 0.982447 0.383986 -1.171865
v 0.825349 0.692827 -1.482283
v 1.290624 0.692443 -1.215669
v -0.214080 0.387920 -1.167682
v -0.513691 0.698320 -1.222453
v -0.029499 0.695638 -1.479295
v 1.291477 0.952865 -1.216783
v 0.826201 0.953248 -1.483397
v 0.959070 1.263783 -1.175533
v -0.512838 0.958742 -1.223566
v -0.173324 1.267506 -1.171575
v -0.028646 0.956059 -1.480409
vn -0.0033 -1.0000 0.0043
vn 0.0033 1.0000 -0.0043
vn 0.8645 -0.0050 -0.5026
vn -1.0000 0.0033 0.0035
vn -0.8260 0.0003 -0.5637
vn 0.0035 0.0043 1.0000
vn -0.0035 -0.0043 -1.0000
vn -0.8470 -0.5306 -0.0313
vn 0.5793 0.8128 0.0614
vn 0.5312 -0.8430 -0.0848
vn 0.4092 0.9095 0.0732
vn 0.8470 0.5306 0.0313
vn 0.2233 0.9713 0.0821
vn 0.0289 0.9957 0.0879
vn -0.9994 0.0272 0.0211
vn -0.1666 0.9819 0.0904
vn -0.0289 -0.9957 -0.0879
vn -0.3557 0.9303 0.0893
vn 0.9994 -0.0272 -0.0211
vn -0.5312 0.8430 0.0848
vn -0.8149 0.5758 0.0664
vn -0.6862 0.7233 0.0771
vn -0.5793 -0.8128 -0.0614
vn 0.8149 -0.5758 -0.0664
vn -0.9123 0.4061 0.0532
vn -0.9746 0.2209 0.0379
vn -0.9344 -0.3560 -0.0141
vn -0.9858 -0.1676 0.0036
vn 0.3557 -0.9303 -0.0893
vn -0.9344 -0.3559 -0.0141
vn 0.9344 0.3559 0.0141
vn -0.7271 -0.6849 -0.0472
vn -0.2233 -0.9713 -0.0821
vn -0.4092 -0.9095 -0.0732
vn 0.9746 -0.2209 -0.0379
vn 0.1666 -0.9819 -0.0904
vn 0.6862 -0.7233 -0.0771
vn 0.0000 1.0000 0.0000
vn 0.9858 0.1676 -0.0036
vn 0.9123 -0.4061 -0.0532
vn -1.0000 -0.0000 0.0000
vn 0.7271 0.6849 0.0472
vn -0.0000 0.0000 -1.0000
vn 0.9344 0.3560 0.0141
vn -0.0186 0.0885 -0.9959
vn 0.0186 -0.0885 0.9959
vn 1.0000 0.0000 -0.0000
vn -0.0000 -1.0000 0.0000
vn 0.5773 0.5774 0.5774
vn 0.5773 -0.5774 0.5774
vn 0.5774 0.5773 -0.5773
vn -0.5774 0.5773 -0.5773
vn -0.5773 -0.5774 -0.5774
vn 0.5774 -0.5774 -0.5773
vn -0.5774 0.5774 0.5773
vn -0.5773 -0.5774 0.5774
vn 0.7071 -0.0000 0.7071
vn 0.7071 -0.0000 -0.7071
vn 0.7071 0.7071 -0.0000
vn -0.7071 0.7071 0.0000
vn -0.7071 -0.0000 -0.7071
vn -0.0000 0.7071 -0.7071
vn -0.0000 -0.7071 -0.7071
vn -0.7071 -0.7071 0.0000
vn 0.0000 0.7071 0.7071
vn 0.0000 -0.7071 0.7071
vn 0.7071 -0.7071 -0.0000
vn -0.7071 -0.0000 0.7071
vn 0.0000 -0.0000 1.0000
vn 0.7622 -0.6141 -0.2048
vn 0.5651 -0.6005 0.5657
vn -0.5614 -0.6038 0.5659
vn -0.7701 -0.5938 -0.2331
vn 0.6611 0.7187 -0.2153
vn 0.5813 0.5779 0.5729
vn -0.5734 0.5817 0.5769
vn -0.6397 0.7279 -0.2470
vn 0.4223 -0.5267 -0.7377
vn -0.4022 -0.5211 -0.7528
vn 0.4178 0.5432 -0.7283
vn -0.3885 0.5515 -0.7382
vn 0.6822 -0.7312 0.0005
vn 0.9651 -0.0043 -0.2620
vn 0.0002 -0.7041 0.7101
vn 0.7096 0.0007 0.7046
vn -0.6803 -0.7329 0.0053
vn -0.7046 0.0053 0.7096
vn -0.9560 0.0019 -0.2933
vn 0.7094 0.7048 -0.0055
vn 0.0048 0.7101 0.7041
vn -0.7048 0.7094 -0.0006
vn -0.0048 -0.7101 -0.7041
vn 0.4972 -0.0053 -0.8676
vn -0.4686 -0.0022 -0.8834
vn -0.0002 0.7041 -0.7101
vn -0.5817 0.7073 -0.4016
vn -0.6168 -0.6676 -0.4170
vn 0.6322 -0.6827 -0.3663
vn 0.6136 0.7036 -0.3584
vn 1.0000 -0.0033 -0.0035
usemtl Cube.001
s off
f 122//1 132//1 150//1 147//1
f 146//2 134//2 155//2 157//2
f 133//3 123//3 149//3 153//3
f 128//4 140//4 144//4 130//4
f 131//5 143//5 156//5 151//5
f 135//2 145//2 142//2 139//2
f 125//6 137//6 141//6 127//6
f 122//1 126//1 129//1 132//1
f 154//7 148//7 152//7 158//7
f 34//8 32//8 79//8 80//8
f 3//9 4//9 6//9 5//9
f 50//10 48//10 87//10 88//10
f 5//11 6//11 8//11 7//11
f 66//12 64//12 95//12 96//12
f 7//13 8//13 10//13 9//13
f 12//14 10//14 68//14 69//14
f 9//14 10//14 12//14 11//14
f 28//15 26//15 76//15 77//15
f 11//16 12//16 14//16 13//16
f 44//17 42//17 84//17 85//17
f 13//18 14//18 16//18 15//18
f 60//19 58//19 92//19 93//19
f 15//20 16//20 18//20 17//20
f 22//21 20//21 73//21 74//21
f 17//22 18//22 20//22 19//22
f 38//23 36//23 81//23 82//23
f 19//21 20//21 22//21 21//21
f 54//24 52//24 89//24 90//24
f 21//25 22//25 24//25 23//25
f 6//9 4//9 1//9 2//9
f 23//26 24//26 26//26 25//26
f 16//18 14//18 70//18 71//18
f 25//15 26//15 28//15 27//15
f 32//27 30//27 78//27 79//27
f 27//28 28//28 30//28 29//28
f 48//29 46//29 86//29 87//29
f 29//30 30//30 32//30 31//30
f 64//31 62//31 94//31 95//31
f 31//8 32//8 34//8 33//8
f 10//13 8//13 67//13 68//13
f 33//32 34//32 36//32 35//32
f 26//26 24//26 75//26 76//26
f 35//23 36//23 38//23 37//23
f 42//33 40//33 83//33 84//33
f 37//34 38//34 40//34 39//34
f 58//35 56//35 91//35 92//35
f 39//33 40//33 42//33 41//33
f 20//22 18//22 72//22 73//22
f 41//17 42//17 44//17 43//17
f 36//32 34//32 80//32 81//32
f 43//36 44//36 46//36 45//36
f 52//37 50//37 88//37 89//37
f 45//29 46//29 48//29 47//29
f 14//16 12//16 69//16 70//16
f 47//10 48//10 50//10 49//10
f 30//28 28//28 77//28 78//28
f 49//37 50//37 52//37 51//37
f 46//36 44//36 85//36 86//36
f 51//24 52//24 54//24 53//24
f 104//38 106//38 117//38 99//38
f 62//39 60//39 93//39 94//39
f 53//40 54//40 56//40 55//40
f 118//41 115//41 108//41 109//41
f 4//42 66//42 96//42 1//42
f 55//35 56//35 58//35 57//35
f 110//43 107//43 103//43 114//43
f 8//11 6//11 2//11 67//11
f 57//19 58//19 60//19 59//19
f 24//25 22//25 74//25 75//25
f 59//39 60//39 62//39 61//39
f 40//34 38//34 82//34 83//34
f 61//44 62//44 64//44 63//44
f 56//40 54//40 90//40 91//40
f 2//45 1//45 96//45 95//45 94//45 93//45 92//45 91//45 90//45 89//45 88//45 87//45 86//45 85//45 84//45 83//45 82//45 81//45 80//45 79//45 78//45 77//45 76//45 75//45 74//45 73//45 72//45 71//45 70//45 69//45 68//45 67//45
f 63//12 64//12 66//12 65//12
f 18//20 16//20 71//20 72//20
f 65//42 66//42 4//42 3//42
f 3//46 5//46 7//46 9//46 11//46 13//46 15//46 17//46 19//46 21//46 23//46 25//46 27//46 29//46 31//46 33//46 35//46 37//46 39//46 41//46 43//46 45//46 47//46 49//46 51//46 53//46 55//46 57//46 59//46 61//46 63//46 65//46
f 112//47 105//47 98//47 100//47
f 111//48 113//48 102//48 119//48
f 97//49 98//49 99//49
f 100//50 101//50 102//50
f 103//51 104//51 105//51
f 106//52 107//52 108//52
f 109//53 110//53 111//53
f 112//54 113//54 114//54
f 115//55 116//55 117//55
f 118//56 119//56 120//56
f 97//57 101//57 100//57 98//57
f 105//58 112//58 114//58 103//58
f 104//59 99//59 98//59 105//59
f 117//60 106//60 108//60 115//60
f 107//61 110//61 109//61 108//61
f 106//62 104//62 103//62 107//62
f 113//63 111//63 110//63 114//63
f 111//64 119//64 118//64 109//64
f 99//65 117//65 116//65 97//65
f 119//66 102//66 101//66 120//66
f 102//67 113//67 112//67 100//67
f 120//68 116//68 115//68 118//68
f 101//69 97//69 116//69 120//69
f 121//70 122//70 123//70
f 124//71 125//71 126//71
f 127//72 128//72 129//72
f 130//73 131//73 132//73
f 133//74 134//74 135//74 136//74
f 137//75 138//75 139//75
f 140//76 141//76 142//76
f 143//77 144//77 145//77 146//77
f 147//78 148//78 149//78
f 150//79 151//79 152//79
f 153//80 154//80 155//80
f 156//81 157//81 158//81
f 121//82 124//82 126//82 122//82
f 123//83 133//83 136//83 121//83
f 125//84 127//84 129//84 126//84
f 124//85 138//85 137//85 125//85
f 128//86 130//86 132//86 129//86
f 127//87 141//87 140//87 128//87
f 130//88 144//88 143//88 131//88
f 135//89 139//89 138//89 136//89
f 134//2 146//2 145//2 135//2
f 139//90 142//90 141//90 137//90
f 142//91 145//91 144//91 140//91
f 147//92 150//92 152//92 148//92
f 148//93 154//93 153//93 149//93
f 151//94 156//94 158//94 152//94
f 154//95 158//95 157//95 155//95
f 146//96 157//96 156//96 143//96
f 150//97 132//97 131//97 151//97
f 149//98 123//98 122//98 147//98
f 155//99 134//99 133//99 153//99
f 121//100 136//100 138//100 124//100
